<svg xmlns="http://www.w3.org/2000/svg" width="40" height="39.014" viewBox="0 0 40 39.014"><path d="M20,0a20,20,0,0,0-6.322,38.977c1,.183,1.365-.435,1.365-.962,0-.476-.018-2.053-.028-3.723C9.453,35.5,8.278,31.934,8.278,31.934a5.3,5.3,0,0,0-2.22-2.925c-1.818-1.24.138-1.216.138-1.216A4.2,4.2,0,0,1,9.26,29.854a4.257,4.257,0,0,0,5.82,1.66,4.276,4.276,0,0,1,1.27-2.671c-4.44-.505-9.11-2.222-9.11-9.885A7.743,7.743,0,0,1,9.3,13.59a7.2,7.2,0,0,1,.2-5.3s1.677-.537,5.5,2.051a18.933,18.933,0,0,1,10.012,0C28.823,7.758,30.5,8.3,30.5,8.3a7.174,7.174,0,0,1,.2,5.293,7.72,7.72,0,0,1,2.056,5.367c0,7.683-4.678,9.375-9.133,9.871a4.764,4.764,0,0,1,1.357,3.7c0,2.673-.027,4.829-.027,5.488,0,.532.364,1.155,1.377.959A20,20,0,0,0,20,0Z" fill="#fff"/></svg>