<svg xmlns="http://www.w3.org/2000/svg" width="512" height="512" viewBox="0 0 512 512"><g transform="translate(-559 -152)"><rect width="512" height="512" transform="translate(559 152)" fill="#192947"/><path d="M179.785,0H138.77V-85.312H58.789V0H17.773V-199.062H58.789V-118.4h79.98v-80.664h41.016Zm74.922,0H215.059V-147.93h39.648ZM212.734-186.211a19.457,19.457,0,0,1,5.947-14.629q5.947-5.742,16.2-5.742,10.117,0,16.133,5.742a19.345,19.345,0,0,1,6.016,14.629,19.4,19.4,0,0,1-6.084,14.766q-6.084,5.742-16.064,5.742t-16.064-5.742A19.4,19.4,0,0,1,212.734-186.211ZM289.3-19.414q0-9.434,6.357-15.312a22.558,22.558,0,0,1,15.928-5.879q9.707,0,16.064,5.879T334-19.414q0,9.3-6.289,15.107T311.582,1.5q-9.707,0-16-5.811T289.3-19.414Z" transform="translate(639 517)" fill="#fff"/></g></svg>