<svg xmlns="http://www.w3.org/2000/svg" width="91.227" height="31.508" viewBox="0 0 91.227 31.508"><path d="M29.964,22.551A14.791,14.791,0,0,0,14.859,7.711,14.788,14.788,0,0,0,0,22.794,14.793,14.793,0,0,0,15.1,37.637a14.955,14.955,0,0,0,8.648-2.8l4.387,4.379,1.95-1.946-4.143-4.136A15.436,15.436,0,0,0,29.964,22.551ZM14.859,10.387a12.288,12.288,0,1,1,.122,24.574A12.141,12.141,0,0,1,2.68,22.8,12.17,12.17,0,0,1,14.859,10.387Zm22.29,5.96h2.558V37.025H37.148Zm1.216-2.8a2.189,2.189,0,1,1,2.193-2.189A2.182,2.182,0,0,1,38.365,13.55Zm10.354,0a2.189,2.189,0,1,1,2.193-2.189A2.182,2.182,0,0,1,48.719,13.55Zm-1.216,2.8h2.558V37.025H47.5Zm17.9,21.047a7.3,7.3,0,0,1-7.553-7.3V10.63h2.558v5.717h9.012V18.9H60.415V30.217a4.8,4.8,0,0,0,4.991,4.744,4.377,4.377,0,0,0,2.433-.73l.247-.122L69.3,36.3l-.243.122a7.8,7.8,0,0,1-3.653.973Zm16.93.122a10.95,10.95,0,1,1-.243-21.9,8.285,8.285,0,0,1,6.576,2.8V16.347h2.558V37.025H88.669V34.718A7.784,7.784,0,0,1,82.336,37.516Zm-.243-19.344a8.26,8.26,0,0,0-8.286,8.515,8.262,8.262,0,0,0,8.53,8.275,8.389,8.389,0,0,0,6.454-3.041V21.213A8.7,8.7,0,0,0,82.093,18.172Z" transform="translate(0 -7.711)" fill="#fff"/></svg>