<svg xmlns="http://www.w3.org/2000/svg" width="40" height="32.502" viewBox="0 0 40 32.502"><path d="M12.579,80.489c15.094,0,23.35-12.506,23.35-23.35,0-.355,0-.709-.024-1.061A16.7,16.7,0,0,0,40,51.83a16.383,16.383,0,0,1-4.714,1.291,8.236,8.236,0,0,0,3.608-4.539,16.449,16.449,0,0,1-5.211,1.992A8.214,8.214,0,0,0,19.7,58.059,23.31,23.31,0,0,1,2.784,49.484,8.247,8.247,0,0,0,5.325,60.439,8.145,8.145,0,0,1,1.6,59.412v.1a8.234,8.234,0,0,0,6.584,8.045,8.2,8.2,0,0,1-3.706.141,8.233,8.233,0,0,0,7.667,5.7,16.471,16.471,0,0,1-10.192,3.52A16.692,16.692,0,0,1,0,76.8a23.236,23.236,0,0,0,12.579,3.68" transform="translate(0 -47.987)" fill="#fff"/></svg>